PathFileType	4	(x/y/z)	TRC_MarkerData\Calibration\Standing_Cal_SL_Passive0001.trc
DataRate	CameraRate	NumFrames	NumMarkers	Units	OrigDataRate	OrigDataStartFrame	OrigNumFrames
240	240	5	50	mm	240	301	2400
Frame#	Time	R_AC			L_AC			HEAD			STERN			C7			L_IC			R_IC			L_ASIS			R_ASIS			L_GT			R_GT			L_PSIS			R_PSIS			SACRAL			L_LAT_KNEE			L_MED_KNEE			R_LAT_KNEE			R_MED_KNEE			L_LAT_ANK			L_MED_ANK			R_LAT_ANK			R_MED_ANK			L_THIGH_PROX_POST			L_THIGH_PROX_ANT			L_THIGH_DIST_ANT			L_THIGH_DIST_POST			R_THIGH_PROX_POST			R_THIGH_PROX_ANT			R_THIGH_DIST_ANT			R_THIGH_DIST_POST			L_SHANK_PROX_POST			L_SHANK_PROX_ANT			L_SHANK_DIST_ANT			L_SHANK_DIST_POST			R_SHANK_PROX_POST			R_SHANK_PROX_ANT			R_SHANK_DIST_ANT			R_SHANK_DIST_POST			L_HEEL_LAT			L_HEEL_SUP			L_HEEL_MED			R_HEEL_LAT			R_HEEL_SUP			R_HEEL_MED			L_1ST_MET			L_5TH_MET			L_TOE			R_1ST_MET			R_5TH_MET			R_TOE			
		X1	Y1	Z1	X2	Y2	Z2	X3	Y3	Z3	X4	Y4	Z4	X5	Y5	Z5	X6	Y6	Z6	X7	Y7	Z7	X8	Y8	Z8	X9	Y9	Z9	X10	Y10	Z10	X11	Y11	Z11	X12	Y12	Z12	X13	Y13	Z13	X14	Y14	Z14	X15	Y15	Z15	X16	Y16	Z16	X17	Y17	Z17	X18	Y18	Z18	X19	Y19	Z19	X20	Y20	Z20	X21	Y21	Z21	X22	Y22	Z22	X23	Y23	Z23	X24	Y24	Z24	X25	Y25	Z25	X26	Y26	Z26	X27	Y27	Z27	X28	Y28	Z28	X29	Y29	Z29	X30	Y30	Z30	X31	Y31	Z31	X32	Y32	Z32	X33	Y33	Z33	X34	Y34	Z34	X35	Y35	Z35	X36	Y36	Z36	X37	Y37	Z37	X38	Y38	Z38	X39	Y39	Z39	X40	Y40	Z40	X41	Y41	Z41	X42	Y42	Z42	X43	Y43	Z43	X44	Y44	Z44	X45	Y45	Z45	X46	Y46	Z46	X47	Y47	Z47	X48	Y48	Z48	X49	Y49	Z49	X50	Y50	Z50	

301	1.2505	568.7	1585.2	478.09	574.29	1609.2	178.19	695.85	1855.3	341.84	694.8	1528.5	333.82	549.09	1600.6	330.67	615.71	1132.9	150.04	627.64	1122.8	489.91	685.78	1055.1	178.08	689.25	1037.6	450.99	588.22	983.94	125.43	596.42	971.53	498.59	482.38	1077.7	272.25	493.18	1072.6	378.77	471.74	1054.2	327.05	587.83	573.42	125.08	612.33	568.05	259.32	537.33	559.92	497.77	562.27	541.25	373.43	491.72	130.24	105.74	494.35	127.81	184.08	468.68	97.109	484.39	504.02	116.09	390.61	555.25	831.71	130.58	619.08	822.17	117.84	614.23	746.89	122.71	552.16	757.59	135.82	553.26	807.85	503.66	619.61	800.39	512.75	605.57	727	508.15	538.34	734.16	497.32	589.24	519.28	127.71	632.99	529.42	138.26	629.24	479.25	139.88	579.66	465.57	128.78	438.13	409.51	488.14	502.7	415.78	516.8	506.09	341.38	513.28	442.19	332.87	487.05	426.94	54.891	105.09	418.42	78.267	142.25	428.62	45.079	171.89	409.49	41.222	452.27	406.22	67.109	415.86	426.49	39.941	386.84	655.47	48.015	185.97	633.19	48.135	82.326	706.29	57.569	160.78	655.29	48.696	428.37	605.73	32.62	529.95	690.49	53.551	484.83
302	1.2547	568.68	1585.2	478.08	574.27	1609.2	178.17	695.86	1855.3	341.81	694.78	1528.5	333.8	549.08	1600.6	330.65	615.68	1132.9	150.05	627.59	1122.8	489.92	685.76	1055.1	178.1	689.21	1037.6	451.01	588.2	983.94	125.44	596.38	971.53	498.59	482.35	1077.7	272.25	493.15	1072.6	378.77	471.71	1054.2	327.05	587.81	573.42	125.08	612.32	568.05	259.33	537.31	559.92	497.78	562.26	541.25	373.44	491.72	130.24	105.74	494.35	127.81	184.08	468.68	97.106	484.39	504.02	116.09	390.61	555.24	831.71	130.58	619.07	822.17	117.85	614.28	746.84	122.75	552.14	757.59	135.83	553.23	807.85	503.67	619.57	800.4	512.76	605.54	727	508.17	538.3	734.16	497.33	589.23	519.28	127.71	632.98	529.42	138.27	629.23	479.25	139.89	579.65	465.57	128.79	438.11	409.51	488.14	502.69	415.78	516.81	506.08	341.37	513.29	442.18	332.87	487.06	426.94	54.89	105.09	418.42	78.265	142.25	428.62	45.078	171.89	409.49	41.218	452.27	406.22	67.105	415.86	426.49	39.938	386.84	655.47	48.016	185.97	633.19	48.136	82.326	706.29	57.57	160.78	655.29	48.702	428.37	605.73	32.62	529.95	690.48	53.557	484.83
303	1.2589	568.66	1585.2	478.06	574.25	1609.2	178.15	695.87	1855.3	341.78	694.76	1528.5	333.79	549.07	1600.6	330.63	615.66	1132.9	150.05	627.55	1122.8	489.92	685.74	1055.1	178.11	689.17	1037.6	451.02	588.18	983.93	125.45	596.34	971.53	498.59	482.32	1077.7	272.25	493.11	1072.6	378.78	471.67	1054.2	327.05	587.8	573.42	125.09	612.32	568.05	259.33	537.29	559.91	497.78	562.24	541.26	373.44	491.72	130.24	105.74	494.35	127.8	184.09	468.68	97.104	484.39	504.02	116.09	390.61	555.22	831.71	130.59	619.06	822.17	117.86	614.32	746.8	122.78	552.13	757.59	135.83	553.19	807.85	503.68	619.53	800.4	512.77	605.5	727	508.18	538.26	734.16	497.34	589.22	519.28	127.72	632.97	529.42	138.28	629.23	479.25	139.89	579.65	465.57	128.79	438.1	409.5	488.15	502.68	415.77	516.81	506.06	341.37	513.3	442.17	332.86	487.07	426.94	54.888	105.09	418.42	78.262	142.25	428.62	45.077	171.89	409.49	41.213	452.27	406.22	67.101	415.86	426.49	39.935	386.84	655.47	48.017	185.97	633.19	48.137	82.326	706.29	57.571	160.78	655.28	48.708	428.37	605.73	32.62	529.95	690.48	53.563	484.83
304	1.263	568.65	1585.2	478.04	574.24	1609.2	178.13	695.89	1855.3	341.75	694.75	1528.5	333.77	549.05	1600.6	330.61	615.64	1132.9	150.06	627.51	1122.8	489.93	685.72	1055.1	178.13	689.13	1037.6	451.04	588.17	983.93	125.46	596.3	971.53	498.59	482.29	1077.7	272.25	493.08	1072.6	378.78	471.64	1054.2	327.05	587.79	573.42	125.1	612.31	568.05	259.34	537.28	559.91	497.79	562.22	541.26	373.45	491.72	130.24	105.74	494.34	127.8	184.09	468.67	97.101	484.39	504.01	116.09	390.61	555.21	831.71	130.59	619.05	822.17	117.87	614.37	746.75	122.81	552.12	757.59	135.84	553.16	807.85	503.68	619.5	800.41	512.79	605.47	727.01	508.2	538.23	734.16	497.35	589.21	519.28	127.72	632.96	529.42	138.28	629.22	479.25	139.9	579.64	465.57	128.8	438.09	409.5	488.16	502.67	415.77	516.82	506.05	341.36	513.31	442.16	332.86	487.08	426.94	54.886	105.09	418.42	78.26	142.25	428.61	45.075	171.89	409.48	41.209	452.27	406.21	67.097	415.86	426.48	39.931	386.85	655.47	48.018	185.97	633.19	48.138	82.327	706.29	57.573	160.78	655.28	48.715	428.37	605.72	32.621	529.95	690.48	53.569	484.84
305	1.2672	568.63	1585.2	478.02	574.22	1609.2	178.11	695.9	1855.3	341.71	694.73	1528.5	333.75	549.04	1600.6	330.59	615.61	1132.9	150.07	627.47	1122.8	489.93	685.69	1055.1	178.14	689.09	1037.6	451.06	588.15	983.93	125.46	596.26	971.53	498.58	482.26	1077.7	272.25	493.04	1072.6	378.78	471.6	1054.2	327.05	587.78	573.42	125.1	612.3	568.05	259.34	537.26	559.91	497.8	562.21	541.26	373.46	491.72	130.23	105.74	494.34	127.8	184.09	468.67	97.099	484.39	504.01	116.09	390.61	555.19	831.71	130.59	619.04	822.17	117.88	614.41	746.7	122.84	552.1	757.59	135.85	553.12	807.85	503.69	619.46	800.41	512.8	605.44	727.01	508.21	538.19	734.16	497.35	589.2	519.28	127.73	632.94	529.42	138.29	629.21	479.25	139.9	579.63	465.57	128.8	438.07	409.49	488.17	502.66	415.77	516.83	506.03	341.36	513.32	442.14	332.86	487.09	426.94	54.884	105.09	418.42	78.257	142.25	428.61	45.074	171.89	409.48	41.204	452.27	406.21	67.092	415.86	426.48	39.927	386.85	655.47	48.019	185.97	633.19	48.139	82.327	706.29	57.574	160.78	655.28	48.722	428.37	605.72	32.621	529.95	690.47	53.576	484.84
